<?xml version="1.0" encoding="utf-8"?>
<!-- Generator: Adobe Illustrator 17.0.0, SVG Export Plug-In . SVG Version: 6.00 Build 0)  -->
<!DOCTYPE svg PUBLIC "-//W3C//DTD SVG 1.1//EN" "http://www.w3.org/Graphics/SVG/1.1/DTD/svg11.dtd">
<svg version="1.1" id="Layer_1" xmlns="http://www.w3.org/2000/svg" xmlns:xlink="http://www.w3.org/1999/xlink" x="0px" y="0px"
	 width="841.89px" height="595.28px" viewBox="0 0 841.89 595.28" enable-background="new 0 0 841.89 595.28" xml:space="preserve">
<g>
	<g>
		<path fill="#231F20" d="M427.05,171.386l-7.663-3.358c0.033-0.176,0.052-0.356,0.052-0.542c0-1.605-1.301-2.907-2.907-2.907
			c-1.605,0-2.907,1.301-2.907,2.907c0,1.605,1.301,2.907,2.907,2.907c0.78,0,1.487-0.309,2.009-0.809l7.8,3.418L427.05,171.386z"/>
		<linearGradient id="SVGID_1_" gradientUnits="userSpaceOnUse" x1="471.1728" y1="250.746" x2="483.4233" y2="244.5169">
			<stop  offset="0" style="stop-color:#898989"/>
			<stop  offset="0" style="stop-color:#818181"/>
			<stop  offset="0.0423" style="stop-color:#727272"/>
			<stop  offset="0.1231" style="stop-color:#4B4B4C"/>
			<stop  offset="0.1538" style="stop-color:#3B3B3C"/>
			<stop  offset="0.3187" style="stop-color:#FFFFFF"/>
			<stop  offset="0.3376" style="stop-color:#F0F0F0"/>
			<stop  offset="0.3738" style="stop-color:#C9C9C9"/>
			<stop  offset="0.4237" style="stop-color:#8A8A8B"/>
			<stop  offset="0.4835" style="stop-color:#363637"/>
			<stop  offset="0.6209" style="stop-color:#535353"/>
			<stop  offset="0.6978" style="stop-color:#7B7B7B"/>
			<stop  offset="0.7802" style="stop-color:#FFFFFF"/>
			<stop  offset="1" style="stop-color:#363637"/>
		</linearGradient>
		<polygon fill="url(#SVGID_1_)" stroke="#0C0C0F" stroke-width="0.9344" stroke-miterlimit="10" points="502.806,285.114 
			487.233,285.114 452.389,209.845 467.962,209.845 		"/>
		<g>
			<linearGradient id="SVGID_2_" gradientUnits="userSpaceOnUse" x1="449.2257" y1="213.6996" x2="469.8009" y2="213.6996">
				<stop  offset="0" style="stop-color:#898989"/>
				<stop  offset="0" style="stop-color:#818181"/>
				<stop  offset="0.0423" style="stop-color:#727272"/>
				<stop  offset="0.1231" style="stop-color:#4B4B4C"/>
				<stop  offset="0.1538" style="stop-color:#3B3B3C"/>
				<stop  offset="0.3187" style="stop-color:#FFFFFF"/>
				<stop  offset="0.3376" style="stop-color:#F0F0F0"/>
				<stop  offset="0.3738" style="stop-color:#C9C9C9"/>
				<stop  offset="0.4237" style="stop-color:#8A8A8B"/>
				<stop  offset="0.4835" style="stop-color:#363637"/>
				<stop  offset="0.6209" style="stop-color:#535353"/>
				<stop  offset="0.6978" style="stop-color:#7B7B7B"/>
				<stop  offset="0.7802" style="stop-color:#FFFFFF"/>
				<stop  offset="1" style="stop-color:#363637"/>
			</linearGradient>
			<polygon fill="url(#SVGID_2_)" points="449.226,287.134 453.176,137.576 461.962,136.758 469.801,137.584 466.511,281.116 
				459.746,281.116 459.746,290.641 			"/>
			<path fill="#0C0C0F" d="M462.005,137.224l7.319,0.779l-3.27,142.647h-6.774v9.344l-9.577-3.192l3.929-148.798L462.005,137.224
				 M462.011,136.285l-0.093,0.009l-8.373,0.779l-0.826,0.077l-0.022,0.829l-3.929,148.798l-0.018,0.692l0.657,0.219l9.577,3.192
				l1.23,0.41v-1.296v-8.409h5.84h0.913l0.021-0.913l3.27-142.647l0.02-0.86l-0.855-0.091l-7.319-0.779L462.011,136.285
				L462.011,136.285z"/>
		</g>
		<g>
			<path fill="#0C0C0F" d="M453.673,204.831l-2.18-0.041c0.012-0.613,1.168-61.387,1.168-64.918c0-2.689-0.705-4.632-2.095-5.777
				c-1.083-0.892-7.807-3.681-9.146-3.808c-1.319,0.456-2.517,0.85-3.605,1.188c2.992,3.011,4.571,7.611,4.666,7.894l-2.066,0.695
				c-0.619-1.834-2.476-5.882-5.069-7.861c-7.218,1.995-8.168,0.94-8.526,0.542c-0.386-0.429-0.468-1.033-0.213-1.575
				c0.62-1.318,3.428-2.379,6.01-2.275c1.129,0.047,2.163,0.393,3.102,0.934c1.434-0.418,3.132-0.957,5.139-1.654
				c0.037-0.013,0.074-0.023,0.112-0.032c1.674-0.383,9.856,3.342,10.983,4.269c1.917,1.579,2.889,4.088,2.889,7.46
				C454.842,143.423,453.721,202.325,453.673,204.831z"/>
		</g>
		<path fill="#89000C" d="M412.276,230.349v71.168c0,0,4.049,3.945,17.545,3.945c13.496,0,18.791-4.672,18.791-4.672l0.623-70.441
			H412.276z"/>
		<ellipse fill="#A7636E" cx="430.756" cy="230.349" rx="18.48" ry="2.336"/>
		<polygon fill="#830812" points="427.742,228.044 427.742,224.042 434.597,224.042 434.597,228.013 		"/>
		<rect x="426.421" y="216.723" fill="#646270" width="9.577" height="5.373"/>
		<rect x="426.85" y="222.096" fill="#150B11" width="8.682" height="1.947"/>
		<rect x="428.601" y="212.441" fill="#3B3A40" width="5.373" height="4.283"/>
		<rect x="429.38" y="211" fill="#0C0C0F" width="3.893" height="1.44"/>
		<path fill="#830812" d="M425.409,185.552l0.369,22.945c0,0,6.691,1.193,13.906-1.35v2.699c0,0,5.554-1.298,8.409-4.153h3.143
			l0.283-18.48L425.409,185.552z"/>
		<path fill="#0C0C0F" d="M439.684,209.845v-2.699c-7.215,2.544-13.906,1.35-13.906,1.35l0.047,2.906h21.75l3.53,2.959l0.133-8.669
			h-3.143C445.238,208.547,439.684,209.845,439.684,209.845z"/>
		<path fill="#830812" d="M440.748,147.502v10.278l-14.958,1.367c-0.573,8.838-0.589,16.72-0.514,21.523l26.34-1.914l0.396-34.654
			L440.748,147.502z"/>
		<path fill="#0C0C0F" d="M425.409,185.552l26.11,1.661l0.097-8.456l-26.34,1.914C425.324,183.739,425.409,185.552,425.409,185.552z
			"/>
		<path fill="#0C0C0F" d="M440.748,147.502l11.263-3.4l0.027-2.362l-5.295-3.737l-18.999,3.27
			c-0.973,5.973-1.582,12.125-1.955,17.874l14.958-1.367V147.502z"/>
		<polygon fill="#0C0C0F" points="470.259,169.927 455.309,169.927 455.3,174.458 470.105,177.447 		"/>
		<polygon fill="#0C0C0F" points="455.24,205.355 455.231,210.027 464.497,210.027 464.497,212.441 469.48,208.08 469.594,202.483 
			465.587,205.355 		"/>
		<polygon fill="#830812" points="455.3,174.458 455.24,205.355 465.587,205.355 469.594,202.483 470.105,177.447 		"/>
		<polygon fill="#0C0C0F" points="460.084,300.738 448.733,295.599 448.733,287.191 460.175,291.122 		"/>
		<path fill="#89000C" d="M456.241,298.998c0,0-0.776,7.346,9.19,0.806c9.967-6.541,37.375-5.839,37.375-5.839v-9.422l-12.77-5.918
			l-23.281,2.881l-6.541,0.078l-0.117,18.687L456.241,298.998z"/>
		<ellipse cx="509.08" cy="286.242" rx="8.987" ry="9.98"/>
		
			<ellipse fill="#414042" stroke="#414042" stroke-width="0.3863" stroke-miterlimit="10" cx="510.608" cy="286.671" rx="3.131" ry="3.477"/>
	</g>
	<g>
		<path fill="#EB7900" d="M296.593,298.849l7.308-4.887c0,0,3.116-11.95,3.464-13.851c0.653,0.749,5.009,2.833,10.695,5.356
			c12.686,5.616,32.002,13.382,32.002,13.382l5.362-61.451l-25.058-0.043l3.372,39.827l-14.396-5.022l-20.769-7.239L296.593,298.849
			z"/>
		<path fill="#EBB05B" d="M349.428,195.536l30.44,4.291l26.272-18.412l-0.672-6.54l-27.575,14.72c0,0-29.097-7.568-29.174-7.547
			L349.428,195.536z"/>
		<polygon fill="#EBB05B" points="405.469,174.874 411.61,169.42 421.741,169.42 419.677,184.325 410.107,184.325 404.943,182.808 
					"/>
		<g>
			<path fill="#FDCC86" d="M348.719,169.144l5.164-6.032l-0.754-0.617l-2.757-2.262l-0.498-0.407l0.014-1.452l0.087-12.056
				l0.037-5.749l0.01-1.273l5.707,0.821l6.947,1.001l14.295,2.061v6.238l-1.655,3.724l-0.054,0.124l2.846,7.416l-4.422,2.715
				l-2.994,8.689h-5.845l-1.851-1.52l-2.468,3.917C356.908,172.859,352.077,170.668,348.719,169.144z"/>
			<path fill="#5C3921" d="M349.888,158.373l0.488,1.862l2.753,2.252c0,0,4.002-4.339,4.687-5.083l-2.804-3.135l0.711-3.375
				l3.565-1.33l1.426,2.176c2.976-3.275,5.434-7.625,4.99-7.347l-3.034-3.271l-12.649-1.821L349.888,158.373z"/>
			<path opacity="0.4" fill="#878787" d="M350.013,140.568c1.7-0.169,3.633-0.329,5.716-0.452l6.947,1.001l14.295,2.061v6.238
				l-1.655,3.724c-5.392-1.227-17.402-4.099-25.34-6.822L350.013,140.568z"/>
			<g>
				<path fill="#EB7900" d="M378.739,145.622c0,0,4.218,0.594,5.145,1.778c0.754,0.96,3.163,5.196,0.73,5.05
					c-2.431-0.147-40.083-7.751-38.852-9.46c1.228-1.712,0.575-3.345,4.368-2.463L378.739,145.622z"/>
				<path fill="#FD9400" d="M348.339,141.172c0,0,4.913,3.674,15.042,5.406c8.875,1.517,16.524,1.457,16.524,1.457
					c0.545-2.459,0.773-4.686,0.73-6.699c-0.007-0.567-0.045-1.111-0.094-1.645c-0.897-9.259-7.825-13.391-14.955-13.817
					c-7.146-0.427-13.499,3.822-16.063,10.105c-0.04,0.087-0.077,0.179-0.108,0.27C348.815,137.79,348.444,139.44,348.339,141.172z"
					/>
				<path fill="#EB7900" d="M349.414,136.249c0.021-0.016,0.049-0.032,0.077-0.051c0.251-0.164,0.634-0.402,1.097-0.715
					c0.232-0.157,0.489-0.336,0.777-0.519c0.291-0.164,0.599-0.361,0.937-0.557c0.329-0.202,0.681-0.415,1.055-0.64
					c0.385-0.201,0.782-0.416,1.207-0.633c0.204-0.113,0.42-0.227,0.634-0.345c0.216-0.112,0.449-0.201,0.681-0.309
					c0.463-0.198,0.923-0.443,1.426-0.628c0.496-0.183,1.01-0.37,1.531-0.563c0.54-0.138,1.076-0.297,1.628-0.45
					c0.561-0.085,1.125-0.217,1.7-0.295c0.284-0.027,0.576-0.051,0.869-0.073l0.437-0.046l0.439,0.005
					c0.294,0.005,0.585,0.005,0.878,0.007c0.296,0.015,0.585,0.056,0.881,0.084c0.59,0.027,1.167,0.191,1.752,0.292
					c0.282,0.073,0.566,0.164,0.85,0.244l0.43,0.125l0.416,0.162c0.272,0.114,0.552,0.208,0.827,0.327
					c0.27,0.128,0.535,0.258,0.803,0.386c1.047,0.546,2.057,1.164,2.961,1.876c0.472,0.326,0.883,0.722,1.322,1.065
					c0.411,0.381,0.827,0.735,1.203,1.124c0.77,0.74,1.442,1.512,2.069,2.22c0.608,0.727,1.165,1.401,1.627,2.029
					c0.256,0.34,0.493,0.668,0.707,0.961c-0.007-0.567-0.045-1.111-0.094-1.645c-0.331-0.654-0.728-1.362-1.193-2.109
					c-0.535-0.826-1.139-1.721-1.874-2.594c-0.348-0.452-0.763-0.869-1.16-1.321c-0.435-0.425-0.864-0.868-1.348-1.275
					c-0.937-0.845-2.027-1.599-3.206-2.257c-1.165-0.674-2.48-1.138-3.814-1.504c-0.681-0.123-1.357-0.297-2.048-0.329
					c-0.343-0.024-0.691-0.068-1.033-0.073c-0.338,0.005-0.686,0.015-1.024,0.025l-0.507,0.014l-0.502,0.061
					c-0.329,0.046-0.662,0.092-0.991,0.138c-0.646,0.118-1.275,0.297-1.893,0.448c-0.599,0.214-1.188,0.42-1.759,0.635
					c-0.545,0.262-1.078,0.515-1.599,0.764c-0.507,0.263-0.97,0.569-1.435,0.843c-0.226,0.142-0.453,0.275-0.667,0.422
					c-0.206,0.15-0.411,0.298-0.608,0.445c-0.397,0.294-0.777,0.578-1.139,0.848c-0.334,0.295-0.653,0.575-0.949,0.843
					c-0.298,0.263-0.578,0.505-0.829,0.74c-0.246,0.243-0.46,0.478-0.658,0.679c-0.329,0.338-0.589,0.632-0.782,0.845
					C349.482,136.066,349.445,136.158,349.414,136.249z"/>
				<path fill="#EB7900" d="M368.552,147.494c0,0,1.212-3.544,0.559-4.129c-0.655-0.581-8.304-2.418-8.889-2.014
					c-0.589,0.403-1.907,4.642-1.672,4.906L368.552,147.494z"/>
			</g>
		</g>
		<polygon fill="#FDCC86" points="364.303,212.572 364.216,213.549 364.303,212.576 		"/>
		<polygon fill="#FDCC86" points="362.063,223.298 359.747,233.74 364.216,213.549 		"/>
		<path fill="#FDCC86" d="M380.695,271.546c-0.073-9.445-0.188-17.252-0.416-16.885
			C380.545,254.229,380.644,260.961,380.695,271.546z"/>
		<path fill="#303030" d="M364.989,204.469l-14.497,3.967l-4.049-23.535l16.005-6.242c0,0,4.039,5.747,5.967,12.126L364.989,204.469
			z"/>
		<path fill="#303030" d="M348.719,169.144c3.358,1.524,8.189,3.715,11.808,5.338l-0.014,0.027l0.014,0.025l-17.442,1.214
			L348.719,169.144z"/>
		<path fill="#FD9400" d="M330.091,236.554l9.117-27.711l-2.896-25.158l6.773-7.938l17.442-1.214l1.921,4.125l-16.005,6.242
			l4.049,23.535l14.497-3.967l-0.686,8.107l-0.087,0.973l-4.469,20.191l37.66,11.05l-1.869,30.125l0.087-1.422h-14.91
			c0,0.611,0,1.234,0,1.855l0,0c-0.005-1.32-0.009-2.581-0.019-3.802c-0.052-10.585-0.15-13.193-0.416-12.759
			c-0.188,0.311-43.15-6.754-43.15-6.754L330.091,236.554z"/>
		<path fill="#FDCC86" d="M354.902,199.488l30.44,4.289l26.272-18.413l-0.667-6.537l-27.58,14.715c0,0-18.074-4.838-23.621-6.193
			L354.902,199.488z"/>
		<path fill="#303030" d="M395.624,273.493l-0.087,1.422l-1.165,16.786l10.629,4.672l3.269,6.947l-27.549-2.178
			c0,0,0.028-11.15,0-22.731c-0.007-1.636-0.005-1.444-0.007-3.062c0-0.621,0-1.245,0-1.855H395.624z"/>
		<path fill="#303030" d="M296.593,298.849l7.308-4.887c0,0,3.116-11.95,3.464-13.851c0.653,0.749,5.009,2.833,10.695,5.356
			l1.282-13.307l-20.769-7.239L296.593,298.849z"/>
		<polygon fill="#FDCC86" points="410.947,178.828 417.615,172.448 427.741,172.448 425.682,187.35 416.112,187.35 410.947,185.833 
					"/>
		<g>
			<polygon fill="#303030" points="373.085,154.794 373.085,154.794 369.304,153.584 371.157,155.996 			"/>
		</g>
	</g>
</g>
<g>
	<g>
		<path fill="#303030" d="M197.136,442.738h9.398c8.999,0,14.757,5.839,14.757,14.238c0,8.358-5.519,14.157-14.638,14.157h-9.518
			V442.738z M206.294,466.134c5.519,0,9.119-3.96,9.119-9.158c0-5.319-3.64-9.239-8.798-9.239h-3.919v18.397H206.294z"/>
		<path fill="#303030" d="M231.215,442.738h5.719v28.395h-5.719V442.738z"/>
		<path fill="#303030" d="M256.174,442.738h5.439l10.558,28.395h-5.879l-1.959-5.679h-10.878l-1.919,5.679h-5.879L256.174,442.738z
			 M262.733,460.655l-3.799-11.119h-0.08l-3.8,11.119H262.733z"/>
		<path fill="#303030" d="M280.694,442.738h5.639l8.719,16.158h0.08l8.719-16.158h5.639v28.395h-5.599v-17.557h-0.08l-6.919,12.198
			h-3.64l-6.879-12.238h-0.079v17.597h-5.6V442.738z"/>
		<path fill="#303030" d="M328.573,442.738h5.438l10.559,28.395h-5.879l-1.96-5.679h-10.878l-1.92,5.679h-5.879L328.573,442.738z
			 M335.132,460.655l-3.8-11.119h-0.079l-3.8,11.119H335.132z"/>
		<path fill="#303030" d="M353.053,442.738h5.52l12.758,19.157h0.08v-19.157h5.559v28.395h-5.639l-12.598-18.757h-0.08v18.757h-5.6
			V442.738z"/>
		<path fill="#303030" d="M393.772,447.737h-7.759v-4.999h21.316v4.999h-7.879v23.396h-5.679V447.737z"/>
		<path fill="#303030" d="M422.332,447.737h-7.759v-4.999h21.316v4.999h-7.879v23.396h-5.679V447.737z"/>
		<path fill="#303030" d="M444.853,442.738h18.157v4.999h-12.598v6.839h10.078v4.919h-10.078v6.639h13.438v4.999h-18.997V442.738z"
			/>
		<path fill="#303030" d="M471.493,457.016c0-8.119,5.199-14.638,14.397-14.638c4.079,0,8.278,1.76,11.318,5.479l-4.16,3.479
			c-1.839-2.239-4.239-3.599-7.158-3.599c-4.839,0-8.519,3.599-8.519,9.279c0,5.278,3.52,9.078,8.599,9.078
			c2.959,0,5.438-1.479,7.158-3.6l4.12,3.56c-2.44,3.039-6.279,5.359-11.278,5.359C478.052,471.413,471.493,466.374,471.493,457.016
			z"/>
		<path fill="#303030" d="M506.332,442.738h5.68v12.278h11.598v-12.278h5.64v28.395h-5.64v-11.118h-11.598v11.118h-5.68V442.738z"/>
		<path fill="#303030" d="M540.211,442.738h5.52l12.758,19.157h0.08v-19.157h5.559v28.395h-5.639l-12.598-18.757h-0.08v18.757h-5.6
			V442.738z"/>
		<path fill="#303030" d="M575.291,442.738h5.72v28.395h-5.72V442.738z"/>
		<path fill="#303030" d="M592.171,442.738h18.157v4.999h-12.598v6.839h10.078v4.919h-10.078v6.639h13.438v4.999h-18.997V442.738z"
			/>
		<path fill="#303030" d="M620.891,442.738h5.64v12.438h0.08l9.718-12.438h7.159l-10.479,12.518l10.838,15.877h-6.958l-7.599-11.397
			l-2.76,3.279v8.118h-5.64V442.738z"/>
	</g>
	<g>
		<path fill="#231F20" d="M267.583,371.494c3.128,3.837,5.237,9.394,5.237,17.446c0,24.791-20.918,25.375-28.736,25.389v0.001
			h-45.606v-85.885h45.061c7.29,0,29.281,0,29.281,26.005C272.82,362.318,270.711,367.747,267.583,371.494z M249.07,354.423
			c0-7.75-3.13-7.76-5.531-7.76l-19.938,0.011v14.948l19.938-0.002C245.94,361.619,249.07,361.622,249.07,354.423z M249.07,388.914
			c0-7.75-3.13-7.76-5.531-7.76h-19.938v14.959l19.938-0.004C245.94,396.109,249.07,396.113,249.07,388.914z"/>
		<path fill="#231F20" d="M443.289,328.645v85.846h-25.122v-51.583l-18.412,51.584v-0.001v0.001h-12.646l-18.412-51.584v51.583
			h-25.123v-85.846h33.988l16.067,43.814l15.672-43.814H443.289z"/>
		<path fill="#231F20" d="M592.815,328.483v85.846h-25.122v-33.475h-28.594v33.556h-25.122v-85.846h25.122v33.556h28.594v-33.637
			H592.815z"/>
		<g>
			<path fill="#231F20" d="M292.338,397.14c0.07-0.003,0.14-0.008,0.21-0.008c2.65,0,5.301,0.001,7.951-0.005
				c0.167,0,0.225,0.053,0.274,0.207c1.815,5.631,3.635,11.259,5.454,16.888c0.016,0.05,0.029,0.102,0.022,0.169
				c-0.028-0.03-0.059-0.059-0.085-0.091c-3.853-4.803-7.705-9.606-11.557-14.409c-0.692-0.863-1.384-1.726-2.08-2.586
				c-0.047-0.058-0.125-0.089-0.189-0.133C292.338,397.161,292.338,397.15,292.338,397.14z"/>
			<path fill="#231F20" d="M301.966,397.138c4.144,0,8.26,0,12.406,0c-2.06,6.39-4.117,12.767-6.173,19.144
				c-0.016,0.002-0.031,0.004-0.047,0.005C306.093,409.912,304.033,403.536,301.966,397.138z"/>
			<path fill="#231F20" d="M309.921,414.858c0.146-0.455,0.292-0.911,0.438-1.366c1.734-5.378,3.469-10.757,5.198-16.137
				c0.054-0.17,0.119-0.23,0.307-0.23c2.666,0.008,5.332,0.005,7.998,0.005c0.063,0,0.126,0,0.241,0
				c-0.115,0.179-0.194,0.332-0.299,0.463c-1.901,2.376-3.806,4.749-5.71,7.123c-2.674,3.333-5.348,6.667-8.021,10
				c-0.04,0.05-0.082,0.099-0.123,0.148C309.941,414.864,309.931,414.861,309.921,414.858z"/>
			<path fill="#231F20" d="M314.041,395.926c-3.928,0-7.816,0-11.739,0c1.96-2.775,3.905-5.53,5.868-8.308
				C310.127,390.387,312.075,393.144,314.041,395.926z"/>
			<path fill="#231F20" d="M309.379,387.25c0.096,0,0.152,0,0.209,0c2.731,0,5.461,0.001,8.192-0.001
				c0.313,0,0.609,0.054,0.896,0.215c-1.194,2.617-2.385,5.228-3.589,7.868C313.184,392.637,311.293,389.96,309.379,387.25z"/>
			<path fill="#231F20" d="M297.703,387.559c0.252-0.166,0.515-0.267,0.803-0.298c0.096-0.01,0.194-0.01,0.291-0.01
				c2.649,0,5.298,0,7.947,0c0.059,0,0.117,0,0.215,0c-1.91,2.705-3.802,5.383-5.708,8.082
				C300.063,392.729,298.885,390.149,297.703,387.559z"/>
			<path fill="#231F20" d="M319.573,388.388c1.505,2.525,2.989,5.016,4.487,7.53c-2.652,0-5.275,0-7.923,0
				C317.279,393.416,318.418,390.92,319.573,388.388z"/>
			<path fill="#231F20" d="M292.489,395.918c1.457-2.446,2.905-4.875,4.367-7.329c1.118,2.452,2.226,4.88,3.343,7.329
				C297.624,395.918,295.072,395.918,292.489,395.918z"/>
		</g>
		<g>
			<path fill="#231F20" d="M462.74,397.14c0.07-0.003,0.14-0.008,0.21-0.008c2.65,0,5.301,0.001,7.951-0.005
				c0.167,0,0.225,0.053,0.274,0.207c1.815,5.631,3.635,11.259,5.454,16.888c0.016,0.05,0.029,0.102,0.022,0.169
				c-0.028-0.03-0.059-0.059-0.085-0.091c-3.853-4.803-7.705-9.606-11.557-14.409c-0.692-0.863-1.384-1.726-2.08-2.586
				c-0.047-0.058-0.125-0.089-0.189-0.133C462.74,397.161,462.74,397.15,462.74,397.14z"/>
			<path fill="#231F20" d="M472.369,397.138c4.144,0,8.26,0,12.406,0c-2.06,6.39-4.117,12.767-6.173,19.144
				c-0.016,0.002-0.031,0.004-0.047,0.005C476.495,409.912,474.436,403.536,472.369,397.138z"/>
			<path fill="#231F20" d="M480.324,414.858c0.146-0.455,0.292-0.911,0.438-1.366c1.734-5.378,3.469-10.757,5.198-16.137
				c0.054-0.17,0.119-0.23,0.307-0.23c2.666,0.008,5.332,0.005,7.998,0.005c0.063,0,0.126,0,0.241,0
				c-0.115,0.179-0.194,0.332-0.299,0.463c-1.901,2.376-3.806,4.749-5.71,7.123c-2.674,3.333-5.348,6.667-8.021,10
				c-0.04,0.05-0.082,0.099-0.123,0.148C480.343,414.864,480.333,414.861,480.324,414.858z"/>
			<path fill="#231F20" d="M484.443,395.926c-3.928,0-7.816,0-11.739,0c1.96-2.775,3.905-5.53,5.868-8.308
				C480.53,390.387,482.477,393.144,484.443,395.926z"/>
			<path fill="#231F20" d="M479.782,387.25c0.096,0,0.152,0,0.209,0c2.731,0,5.461,0.001,8.192-0.001
				c0.313,0,0.609,0.054,0.896,0.215c-1.194,2.617-2.385,5.228-3.589,7.868C483.587,392.637,481.696,389.96,479.782,387.25z"/>
			<path fill="#231F20" d="M468.106,387.559c0.252-0.166,0.515-0.267,0.803-0.298c0.096-0.01,0.194-0.01,0.291-0.01
				c2.649,0,5.298,0,7.947,0c0.059,0,0.117,0,0.215,0c-1.91,2.705-3.802,5.383-5.708,8.082
				C470.466,392.729,469.288,390.149,468.106,387.559z"/>
			<path fill="#231F20" d="M489.976,388.388c1.505,2.525,2.989,5.016,4.487,7.53c-2.652,0-5.275,0-7.923,0
				C487.681,393.416,488.82,390.92,489.976,388.388z"/>
			<path fill="#231F20" d="M462.892,395.918c1.457-2.446,2.905-4.875,4.367-7.329c1.118,2.452,2.226,4.88,3.343,7.329
				C468.026,395.918,465.474,395.918,462.892,395.918z"/>
		</g>
		<g>
			<path fill="#231F20" d="M612.258,397.14c0.07-0.003,0.14-0.008,0.21-0.008c2.65,0,5.301,0.001,7.951-0.005
				c0.167,0,0.225,0.053,0.274,0.207c1.815,5.631,3.635,11.259,5.454,16.888c0.016,0.05,0.029,0.102,0.022,0.169
				c-0.028-0.03-0.059-0.059-0.085-0.091c-3.853-4.803-7.705-9.606-11.557-14.409c-0.692-0.863-1.384-1.726-2.08-2.586
				c-0.047-0.058-0.125-0.089-0.189-0.133C612.258,397.161,612.258,397.15,612.258,397.14z"/>
			<path fill="#231F20" d="M621.887,397.138c4.144,0,8.26,0,12.406,0c-2.06,6.39-4.117,12.767-6.173,19.144
				c-0.016,0.002-0.031,0.004-0.047,0.005C626.013,409.912,623.953,403.536,621.887,397.138z"/>
			<path fill="#231F20" d="M629.841,414.858c0.146-0.455,0.292-0.911,0.438-1.366c1.734-5.378,3.469-10.757,5.198-16.137
				c0.055-0.17,0.119-0.23,0.307-0.23c2.666,0.008,5.332,0.005,7.998,0.005c0.063,0,0.126,0,0.241,0
				c-0.115,0.179-0.194,0.332-0.299,0.463c-1.901,2.376-3.806,4.749-5.71,7.123c-2.674,3.333-5.348,6.667-8.021,10
				c-0.04,0.05-0.082,0.099-0.123,0.148C629.861,414.864,629.851,414.861,629.841,414.858z"/>
			<path fill="#231F20" d="M633.961,395.926c-3.928,0-7.816,0-11.739,0c1.96-2.775,3.905-5.53,5.868-8.308
				C630.047,390.387,631.995,393.144,633.961,395.926z"/>
			<path fill="#231F20" d="M629.299,387.25c0.096,0,0.152,0,0.209,0c2.731,0,5.461,0.001,8.192-0.001
				c0.313,0,0.609,0.054,0.896,0.215c-1.194,2.617-2.385,5.228-3.589,7.868C633.104,392.637,631.213,389.96,629.299,387.25z"/>
			<path fill="#231F20" d="M617.623,387.559c0.252-0.166,0.515-0.267,0.803-0.298c0.096-0.01,0.194-0.01,0.291-0.01
				c2.649,0,5.298,0,7.947,0c0.059,0,0.117,0,0.215,0c-1.91,2.705-3.802,5.383-5.708,8.082
				C619.983,392.729,618.805,390.149,617.623,387.559z"/>
			<path fill="#231F20" d="M639.494,388.388c1.505,2.525,2.989,5.016,4.487,7.53c-2.652,0-5.275,0-7.923,0
				C637.199,393.416,638.338,390.92,639.494,388.388z"/>
			<path fill="#231F20" d="M612.409,395.918c1.457-2.446,2.905-4.875,4.367-7.329c1.118,2.452,2.226,4.88,3.343,7.329
				C617.544,395.918,614.992,395.918,612.409,395.918z"/>
		</g>
	</g>
</g>
</svg>
